<?xml version="1.0" encoding="UTF-8"?>
<svg width="139px" height="52px" viewBox="0 0 139 52" version="1.1" xmlns="http://www.w3.org/2000/svg" xmlns:xlink="http://www.w3.org/1999/xlink">
    <!-- Generator: Sketch 49 (51002) - http://www.bohemiancoding.com/sketch -->
    <title>Logo_English</title>
    <desc>Created with Sketch.</desc>
    <defs>
        <polygon id="path-1" points="0 0.955493878 8.16773878 0.955493878 8.16773878 10.8003918 0 10.8003918"></polygon>
        <polygon id="path-3" points="0.294563265 0.124995918 1.74171429 0.124995918 1.74171429 1.59634286 0.294563265 1.59634286"></polygon>
        <polygon id="path-5" points="0.00103636364 0.292286087 22.6124182 0.292286087 22.6124182 27.7565217 0.00103636364 27.7565217"></polygon>
    </defs>
    <g id="_SYMBOLS" stroke="none" stroke-width="1" fill="none" fill-rule="evenodd">
        <g id="Desktop-Header" transform="translate(-140.000000, -29.000000)">
            <g id="Logo_English" transform="translate(140.000000, 29.000000)">
                <g id="Page-1" transform="translate(43.000000, 35.000000)">
                    <g id="Group-3" transform="translate(0.000000, 0.024392)">
                        <mask id="mask-2" fill="white">
                            <use href="#path-1"></use>
                        </mask>
                        <g id="Clip-2"></g>
                        <path d="M-9.79591837e-05,5.97296327 C-9.79591837e-05,2.75500408 1.97769796,0.955493878 5.15451429,0.955493878 C6.51810612,0.955493878 7.45851429,1.26896327 8.12659592,1.71859592 L8.12659592,3.79141224 L6.81786122,3.79141224 C6.53084082,3.54553469 5.98618776,3.23206531 5.24953469,3.23206531 C4.06324898,3.23206531 3.31386122,3.98243265 3.31386122,5.8368 C3.31386122,7.86847347 3.95451429,8.57769796 5.11337143,8.57769796 C5.98618776,8.57769796 6.54553469,8.26422857 6.91288163,7.90961633 L8.16773878,7.90961633 L8.16773878,9.83157551 C7.4448,10.3634939 6.40839184,10.8003918 4.86749388,10.8003918 C1.85426939,10.8003918 -9.79591837e-05,9.09590204 -9.79591837e-05,5.97296327" id="Fill-1" fill="#231F20" mask="url(#mask-2)"></path>
                    </g>
                    <path d="M12.1773061,4.416 C12.7777959,3.84293878 13.5683265,3.33844898 14.6723265,3.33844898 C15.7910204,3.33844898 16.6501224,3.82922449 16.6501224,5.424 L16.6501224,10.6746122 L13.6231837,10.6746122 L13.6231837,6.22922449 C13.6231837,5.71102041 13.3773061,5.60228571 12.8179592,5.60228571 C12.5857959,5.60228571 12.3546122,5.64342857 12.1773061,5.68359184 L12.1773061,10.6746122 L9.13665306,10.6746122 L9.13665306,1.12946939 L11.140898,1.12946939 C12,1.12946939 12.1773061,1.36163265 12.1773061,2.62922449 L12.1773061,4.416 Z" id="Fill-4" fill="#231F20"></path>
                    <path d="M33.3949714,10.2381061 L33.3949714,8.43859592 L34.4578286,8.43859592 C34.7037061,8.66977959 35.3169306,8.90194286 35.9997061,8.90194286 C36.4904816,8.90194286 36.8852571,8.83337143 36.8852571,8.5610449 C36.8852571,8.2603102 36.6403592,8.23386122 35.6725224,8.08398367 C34.1992163,7.87924898 33.2989714,7.41590204 33.2989714,5.79271837 C33.2989714,4.08920816 34.7037061,3.3525551 36.5580735,3.3525551 C37.8266449,3.3525551 38.5358694,3.52888163 39.2166857,3.78847347 L39.2166857,5.56153469 L38.2086857,5.56153469 C37.8942367,5.3568 37.4034612,5.17949388 36.707951,5.17949388 C36.1358694,5.17949388 35.9174204,5.28822857 35.9174204,5.52039184 C35.9174204,5.76626939 36.1760327,5.83386122 37.0351347,5.94259592 C38.6720327,6.13459592 39.5987265,6.57051429 39.5987265,8.20643265 C39.5987265,9.85606531 38.4535837,10.7837388 36.1084408,10.7837388 C34.7722776,10.7837388 33.9944816,10.5241469 33.3949714,10.2381061" id="Fill-6" fill="#231F20"></path>
                    <path d="M43.0086857,6.33795918 L44.6720327,6.33795918 C44.6308898,5.43869388 44.3722776,5.16636735 43.8677878,5.16636735 C43.4446041,5.16636735 43.1037061,5.37012245 43.0086857,6.33795918 Z M43.0224,7.72897959 C43.144849,8.62922449 43.5954612,8.87510204 44.4398694,8.87510204 C45.2450939,8.87510204 45.8044408,8.67036735 46.185502,8.43918367 L47.1533388,8.43918367 L47.1533388,10.0878367 C46.4450939,10.4698776 45.544849,10.7980408 43.9628082,10.7980408 C41.2630531,10.7980408 39.9817469,9.39232653 39.9817469,7.1157551 C39.9817469,4.81077551 41.481502,3.33844898 43.8677878,3.33844898 C46.2677878,3.33844898 47.4540735,4.55216327 47.4540735,7.06089796 C47.4540735,7.40179592 47.4266449,7.63395918 47.4266449,7.72897959 L43.0224,7.72897959 Z" id="Fill-8" fill="#231F20"></path>
                    <polygon id="Fill-10" fill="#231F20" points="51.2098286 10.6743184 51.2098286 1.12917551 54.4552163 1.12917551 54.4552163 4.68901224 56.6504816 4.68901224 56.6504816 1.12917551 59.8958694 1.12917551 59.8958694 10.6743184 56.6504816 10.6743184 56.6504816 6.99301224 54.4552163 6.99301224 54.4552163 10.6743184"></polygon>
                    <path d="M64.860049,8.90164898 L64.860049,7.77022041 C64.6827429,7.74279184 64.4642939,7.71536327 64.3016816,7.71536327 C63.8373551,7.71536327 63.5777633,7.93381224 63.5777633,8.45201633 C63.5777633,8.94279184 63.878498,9.12009796 64.2331102,9.12009796 C64.4515592,9.12009796 64.6827429,9.02409796 64.860049,8.90164898 M65.0099265,10.0330776 C64.5054367,10.5522612 63.8510694,10.7697306 62.9919673,10.7697306 C61.8056816,10.7697306 60.7555592,10.0879347 60.7555592,8.64205714 C60.7555592,7.11585306 61.8595592,6.43307755 63.5513143,6.43307755 C64.0558041,6.43307755 64.4780082,6.46148571 64.860049,6.52907755 L64.860049,6.26948571 C64.860049,5.6836898 64.5602939,5.46524082 63.756049,5.46524082 C63.1144163,5.46524082 62.5697633,5.64352653 62.2416,5.83356735 L61.2737633,5.83356735 L61.2737633,3.89789388 C61.9281306,3.62458776 63.0605388,3.33854694 64.4368653,3.33854694 C66.796702,3.33854694 67.8869878,4.11536327 67.8869878,6.05201633 L67.8869878,10.6747102 L65.8964571,10.6747102 C65.3782531,10.6747102 65.1323755,10.4298122 65.0099265,10.0330776" id="Fill-12" fill="#231F20"></path>
                    <path d="M72.6058776,8.7792 C73.2063673,8.7792 73.6697143,8.49315918 73.6697143,7.10213878 C73.6697143,5.81985306 73.219102,5.53381224 72.6333061,5.53381224 C72.4422857,5.53381224 72.1973878,5.58866939 71.9789388,5.65626122 L71.9789388,8.62932245 C72.1425306,8.72434286 72.333551,8.7792 72.6058776,8.7792 M71.9789388,10.1427918 L71.9789388,12.8827102 L68.9373061,12.8827102 L68.9373061,3.4747102 L71.0924082,3.4747102 C71.5155918,3.4747102 71.7604898,3.59715918 71.8829388,4.33381224 C72.4148571,3.73430204 73.0966531,3.33854694 74.0919184,3.33854694 C75.4280816,3.33854694 76.7377959,4.15650612 76.7377959,6.84254694 C76.7377959,9.62458776 75.2919184,10.6198531 73.6971429,10.6198531 C72.9330612,10.6198531 72.3874286,10.4562612 71.9789388,10.1427918" id="Fill-14" fill="#231F20"></path>
                    <path d="M81.1840653,8.7792 C81.7835755,8.7792 82.247902,8.49315918 82.247902,7.10213878 C82.247902,5.81985306 81.7972898,5.53381224 81.2114939,5.53381224 C81.0204735,5.53381224 80.7745959,5.58866939 80.5571265,5.65626122 L80.5571265,8.62932245 C80.7197388,8.72434286 80.9117388,8.7792 81.1840653,8.7792 M80.5571265,10.1427918 L80.5571265,12.8827102 L77.5154939,12.8827102 L77.5154939,3.4747102 L79.6705959,3.4747102 C80.0928,3.4747102 80.3386776,3.59715918 80.4611265,4.33381224 C80.9930449,3.73430204 81.6748408,3.33854694 82.6701061,3.33854694 C84.0062694,3.33854694 85.3159837,4.15650612 85.3159837,6.84254694 C85.3159837,9.62458776 83.8701061,10.6198531 82.2753306,10.6198531 C81.511249,10.6198531 80.9656163,10.4562612 80.5571265,10.1427918" id="Fill-16" fill="#231F20"></path>
                    <polygon id="Fill-18" fill="#231F20" points="87.0621061 12.2833959 87.9760653 10.3467429 85.4937796 4.07441633 85.4937796 3.47490612 88.4119837 3.47490612 89.5982694 7.10233469 89.6384327 7.10233469 90.7571265 3.47490612 93.3344327 3.47490612 93.3344327 4.07441633 89.9391673 12.8829061 87.0621061 12.8829061"></polygon>
                    <path d="M20.9534694,8.18899592 C20.3510204,8.18899592 19.8631837,7.70115918 19.8631837,7.0987102 C19.8631837,6.49528163 20.3510204,6.0074449 20.9534694,6.0074449 C21.5559184,6.0074449 22.0437551,6.49528163 22.0437551,7.0987102 C22.0437551,7.70115918 21.5559184,8.18899592 20.9534694,8.18899592 M20.9534694,3.33903673 C18.8767347,3.33903673 17.1937959,5.02197551 17.1937959,7.0987102 C17.1937959,9.1754449 18.8767347,10.8593633 20.9534694,10.8593633 C23.0302041,10.8593633 24.7131429,9.1754449 24.7131429,7.0987102 C24.7131429,5.02197551 23.0302041,3.33903673 20.9534694,3.33903673" id="Fill-20" fill="#231F20"></path>
                    <path d="M28.9729959,8.18899592 C28.3705469,8.18899592 27.8827102,7.70115918 27.8827102,7.0987102 C27.8827102,6.49528163 28.3705469,6.0074449 28.9729959,6.0074449 C29.5754449,6.0074449 30.0632816,6.49528163 30.0632816,7.0987102 C30.0632816,7.70115918 29.5754449,8.18899592 28.9729959,8.18899592 M28.9729959,3.33903673 C26.8952816,3.33903673 25.2133224,5.02197551 25.2133224,7.0987102 C25.2133224,9.1754449 26.8952816,10.8593633 28.9729959,10.8593633 C31.0497306,10.8593633 32.7326694,9.1754449 32.7326694,7.0987102 C32.7326694,5.02197551 31.0497306,3.33903673 28.9729959,3.33903673" id="Fill-22" fill="#231F20"></path>
                    <path d="M31.2353633,12.9013224 C31.2157714,12.8699755 31.0316082,12.5819755 30.7083429,12.3292408 C30.2352,11.9599347 29.7081796,11.8512 29.184098,12.0147918 C28.9470367,12.0892408 28.8138122,12.3419755 28.8882612,12.5790367 C28.9627102,12.8180571 29.2144653,12.950302 29.4534857,12.8758531 C29.5142204,12.8572408 29.5729959,12.8484245 29.6298122,12.8464653 C29.0342204,14.3599347 27.4453224,15.7754449 25.0100571,15.7754449 C23.1027918,15.7754449 20.9339755,14.6792816 20.3560163,12.8249143 C20.4471184,12.8219755 20.5107918,12.8268735 20.5205878,12.8278531 C20.7684245,12.8513633 20.9888327,12.6730776 21.0133224,12.4262204 C21.040751,12.1774041 20.8605061,11.9550367 20.6126694,11.9305469 C20.5754449,11.9266286 20.2345469,11.8952816 19.8378122,11.9932408 C19.2559347,12.1401796 18.8454857,12.4869551 18.6515265,13.0012408 C18.5623837,13.2334041 18.6809143,13.4929959 18.9140571,13.5821388 C18.9659755,13.6017306 19.0188735,13.6115265 19.072751,13.6115265 C19.2559347,13.6115265 19.4263837,13.4998531 19.4939755,13.3196082 C19.5086694,13.2814041 19.5253224,13.2471184 19.5449143,13.2147918 C20.181649,14.9878531 22.1594449,16.6766694 25.0100571,16.6766694 C27.8077714,16.6766694 29.6650776,15.0642612 30.4164245,13.3039347 C30.448751,13.3460571 30.4683429,13.3754449 30.4722612,13.382302 C30.5584653,13.5174857 30.7044245,13.5919347 30.854302,13.5919347 C30.9365878,13.5919347 31.0188735,13.5703837 31.0923429,13.5223837 C31.3049143,13.3901388 31.3676082,13.1119347 31.2353633,12.9013224" id="Fill-24" fill="#231F20"></path>
                    <polygon id="Fill-26" fill="#231F20" points="93.7719184 1.39023673 93.7719184 2.60003265 93.4917551 2.60003265 93.4917551 1.39023673 93.0979592 1.39023673 93.0979592 1.12868571 94.1657143 1.12868571 94.1657143 1.39023673"></polygon>
                    <g id="Group-30" transform="translate(94.040816, 1.003984)">
                        <mask id="mask-4" fill="white">
                            <use href="#path-3"></use>
                        </mask>
                        <g id="Clip-29"></g>
                        <polygon id="Fill-28" fill="#231F20" mask="url(#mask-4)" points="1.7424 1.59634286 1.46713469 1.59634286 1.46713469 0.516832653 1.16835918 1.59634286 0.868604082 1.59634286 0.570808163 0.516832653 0.570808163 1.59634286 0.294563265 1.59634286 0.294563265 0.124995918 0.709910204 0.124995918 1.01750204 1.22703673 1.32509388 0.124995918 1.7424 0.124995918"></polygon>
                    </g>
                </g>
                <g id="Page-1">
                    <path d="M30.7314397,23.0541759 C28.948718,23.0541759 27.5016384,21.608973 27.5016384,19.826087 C27.5016384,18.0411909 28.948718,16.597998 30.7314397,16.597998 C32.5141614,16.597998 33.961241,18.0411909 33.961241,19.826087 C33.961241,21.608973 32.5141614,23.0541759 30.7314397,23.0541759 M30.7314397,8.92173913 C24.7079708,8.92173913 19.826087,13.8020629 19.826087,19.826087 C19.826087,25.848101 24.7079708,30.7304348 30.7314397,30.7304348 C36.7549086,30.7304348 41.6347826,25.848101 41.6347826,19.826087 C41.6347826,13.8020629 36.7549086,8.92173913 30.7314397,8.92173913" id="Fill-1" fill="#231F20"></path>
                    <path d="M54.5257577,24.6305923 C51.8715024,24.6305923 49.7215757,22.4800712 49.7215757,19.825082 C49.7215757,17.1700929 51.8715024,15.0195718 54.5257577,15.0195718 C57.1759944,15.0195718 59.3279304,17.1700929 59.3279304,19.825082 C59.3279304,22.4800712 57.1759944,24.6305923 54.5257577,24.6305923 M54.5257577,8.92173913 C48.5019444,8.92173913 43.6173913,13.8016132 43.6173913,19.825082 C43.6173913,25.8465411 48.5019444,30.7304348 54.5257577,30.7304348 C60.5435432,30.7304348 65.426087,25.8465411 65.426087,19.825082 C65.426087,13.8016132 60.5435432,8.92173913 54.5257577,8.92173913" id="Fill-3" fill="#231F20"></path>
                    <path d="M102.104348,27.0866079 C98.0923518,27.0866079 94.8441627,23.8346985 94.8441627,19.8270919 C94.8441627,15.8154656 98.0923518,12.5635562 102.104348,12.5635562 C106.114334,12.5635562 109.366543,15.8154656 109.366543,19.8270919 C109.366543,23.8346985 106.114334,27.0866079 102.104348,27.0866079 M102.104348,8.92173913 C96.0803238,8.92173913 91.2,13.803623 91.2,19.8270919 C91.2,25.8485509 96.0803238,30.7304348 102.104348,30.7304348 C108.128372,30.7304348 113.008696,25.8485509 113.008696,19.8270919 C113.008696,13.803623 108.128372,8.92173913 102.104348,8.92173913" id="Fill-5" fill="#231F20"></path>
                    <path d="M78.3130435,25.6537987 C75.059424,25.6537987 72.424776,22.984241 72.424776,19.6920577 C72.424776,16.3978398 75.059424,13.7262473 78.3130435,13.7262473 C81.5666629,13.7262473 84.2053302,16.3978398 84.2053302,19.6920577 C84.2053302,22.984241 81.5666629,25.6537987 78.3130435,25.6537987 Z M84.0164233,0 L84.0164233,10.2834945 C82.3584641,9.24985477 80.4050866,8.65368067 78.3130435,8.65368067 C72.2921393,8.65368067 67.4086957,13.5939903 67.4086957,19.6920577 C67.4086957,25.7880905 72.2921393,30.7304348 78.3130435,30.7304348 C84.3259091,30.7304348 89.2033238,25.8002988 89.2173913,19.7144397 L89.2173913,0 L84.0164233,0 Z" id="Fill-7" fill="#231F20"></path>
                    <g id="Group-11" transform="translate(0.000000, 8.921739)">
                        <mask id="mask-6" fill="white">
                            <use href="#path-5"></use>
                        </mask>
                        <g id="Clip-10"></g>
                        <path d="M13.1711455,0.292286087 C13.1711455,0.292286087 8.21318182,5.85499043 6.53427273,7.72154571 C6.54049091,5.50590969 6.53427273,0.292286087 6.53427273,0.292286087 L0.00103636364,0.292286087 L0.00103636364,27.7567271 L6.53427273,27.7567271 C6.53427273,27.7567271 6.5322,16.4341904 6.53427273,13.7544824 C8.28158182,15.6395184 14.2842,22.1139395 14.2842,22.1139395 L22.6124182,22.1139395 C22.6124182,22.1139395 12.8042727,11.5388463 12.0477273,10.7298004 C12.7835455,9.90843391 21.3770727,0.292286087 21.3770727,0.292286087 L13.1711455,0.292286087 Z" id="Fill-9" fill="#231F20" mask="url(#mask-6)"></path>
                    </g>
                    <path d="M112.208055,10.3088171 L112.489583,10.3088171 C112.726423,10.3088171 112.945389,10.2975947 112.945389,10.0215258 C112.945389,9.79259065 112.746533,9.75443478 112.565551,9.75443478 L112.208055,9.75443478 L112.208055,10.3088171 Z M111.939934,9.5367219 L112.608003,9.5367219 C113.019123,9.5367219 113.213511,9.70056768 113.213511,10.0327482 C113.213511,10.3492174 113.014654,10.4793962 112.757704,10.5063298 L113.253729,11.273936 L112.963264,11.273936 L112.491817,10.5265299 L112.208055,10.5265299 L112.208055,11.273936 L111.939934,11.273936 L111.939934,9.5367219 Z M112.516395,11.6756948 C113.202339,11.6756948 113.731879,11.1280459 113.731879,10.40084 C113.731879,9.68934537 113.202339,9.13945201 112.516395,9.13945201 C111.823748,9.13945201 111.294208,9.68934537 111.294208,10.40084 C111.294208,11.1280459 111.823748,11.6756948 112.516395,11.6756948 Z M112.516395,8.92173913 C113.325228,8.92173913 114,9.56141099 114,10.40084 C114,11.2537358 113.325228,11.8956522 112.516395,11.8956522 C111.705328,11.8956522 111.026087,11.2537358 111.026087,10.40084 C111.026087,9.56141099 111.705328,8.92173913 112.516395,8.92173913 Z" id="Fill-12" fill="#231F20"></path>
                </g>
            </g>
        </g>
    </g>
</svg>