<svg width="159" height="46" viewBox="0 0 159 46" fill="none" xmlns="http://www.w3.org/2000/svg" xmlns:xlink="http://www.w3.org/1999/xlink">
 <path fill-rule="evenodd" clip-rule="evenodd" d="M157.244 29.7332L156.852 29.0977C156.801 29.0977 156.733 29.0969 156.634 29.0877V29.7332H156.432V28.2581C156.439 28.2581 156.49 28.2561 156.586 28.2527C156.686 28.24 156.759 28.24 156.801 28.24C157.158 28.24 157.338 28.383 157.338 28.6667C157.338 28.7534 157.306 28.8394 157.25 28.9141C157.188 28.9916 157.123 29.0345 157.05 29.0544L157.476 29.7332H157.244ZM156.634 28.4392V28.9183C156.684 28.9278 156.733 28.9298 156.778 28.9298C156.898 28.9298 156.986 28.9145 157.04 28.8689C157.098 28.8309 157.122 28.7615 157.122 28.6633C157.122 28.5818 157.097 28.523 157.035 28.4821C156.971 28.4489 156.884 28.4302 156.751 28.4302C156.736 28.4302 156.693 28.4338 156.634 28.4392ZM157.941 29.0314C157.941 29.6251 157.463 30.1027 156.878 30.1027C156.296 30.1027 155.818 29.6251 155.818 29.0314C155.818 28.4493 156.296 27.9733 156.878 27.9733C157.463 27.9733 157.941 28.4493 157.941 29.0314ZM156.878 27.8427C156.222 27.8427 155.691 28.375 155.691 29.0304C155.691 29.695 156.222 30.2281 156.878 30.2281C157.539 30.2281 158.07 29.695 158.07 29.0304C158.07 28.375 157.539 27.8427 156.878 27.8427Z" fill="#002A5C">
 </path>
 <mask id="mask0" mask-type="alpha" maskUnits="userSpaceOnUse" x="142" y="28" width="17" height="18">
  <path fill-rule="evenodd" clip-rule="evenodd" d="M142.207 28.6462H158.095V45.1214H142.207V28.6462Z" fill="white">
  </path>
 </mask>
 <g mask="url(#mask0)">
  <path fill-rule="evenodd" clip-rule="evenodd" d="M158.092 36.4296C158.038 34.4037 157.192 31.926 155.488 30.7038C157.784 33.0857 158.037 37.2304 156.848 39.8818C155.271 43.3793 151.364 45.9123 146.253 43.9606C147.885 45.3742 150.497 45.3268 152.525 44.7199C156.054 43.667 158.185 39.9935 158.092 36.4296ZM145.685 37.3712C146.082 38.8613 147.394 40.2526 148.922 40.3987C150.541 40.6249 152.151 39.9286 152.963 38.4389C153.77 37.231 153.64 35.3735 152.963 34.169C152.425 33.4231 151.667 32.5845 150.805 32.4001C149.277 31.8508 147.568 32.4001 146.447 33.6973C145.738 34.726 145.327 36.0778 145.685 37.3712ZM146.177 43.1298C143.294 41.552 141.865 38.4867 142.277 35.1854C142.582 32.5386 144.606 30.0307 147.028 29.0965C148.727 28.476 150.207 28.5316 151.883 29.0506C154.579 29.8879 156.69 32.6796 156.871 35.558C157.057 38.4867 155.973 41.0466 153.584 42.716C151.57 44.2522 148.334 44.3869 146.177 43.1298ZM147.118 38.5472C146.312 37.6349 145.995 36.3838 146.448 35.1418C146.83 34.0985 147.455 33.4768 148.482 33.043C149.51 32.6124 150.902 32.8641 151.793 33.5907C150.645 33.1359 149.395 33.1496 148.464 33.7164C146.833 34.611 146.613 36.198 146.783 37.5193C146.834 37.927 147.118 38.5472 147.118 38.5472Z" fill="#002A5C">
  </path>
 </g>
 <path fill-rule="evenodd" clip-rule="evenodd" d="M140.128 42.3514C140.128 43.6953 140.778 44.3746 140.778 44.3746H136.403C136.403 44.377 137.17 44.9502 137.17 44.9502H142.049C142.049 44.9502 140.721 44.0197 140.721 42.3514V30.8896C140.721 30.0157 141.172 29.9234 141.172 29.9234L140.605 29.6634C140.605 29.6634 140.128 29.7877 140.128 30.7205V42.3514ZM139.421 30.2877V42.3718C139.405 43.3986 140.064 43.7193 140.064 43.7193H136.056L131.897 36.6884V42.3664C131.897 44.0352 133.272 44.9507 133.272 44.9507H127.71C127.71 44.9507 126.947 44.3781 126.947 44.375H132.002C132.002 44.375 131.304 43.7131 131.304 42.3664V35.6191L130.633 34.4841V42.3718C130.633 43.3908 131.304 43.7193 131.304 43.7193H126.645C126.645 43.7193 127.266 43.3908 127.266 42.3718L127.254 30.2877C127.254 29.2315 126.608 28.9307 126.598 28.9336H131.262L136.047 36.464L136.056 35.3667L132.555 29.4194L133.42 29.6566L136.047 34.0628V30.2801C136.047 29.2418 135.424 28.9336 135.424 28.9336H140.069C140.069 28.9336 139.421 29.2213 139.421 30.2877Z" fill="#002A5C">
 </path>
 <path fill-rule="evenodd" clip-rule="evenodd" d="M123.754 42.3519C123.754 43.6958 124.269 44.3751 124.269 44.3751H119.336C119.336 44.3775 120.104 44.9507 120.104 44.9507H125.667C125.667 44.9507 124.337 44.0202 124.337 42.3519V30.8618C124.337 30.0489 124.716 29.9454 124.716 29.9454L124.221 29.6358C124.221 29.6358 123.754 29.7595 123.754 30.692V42.3519ZM118.953 28.9336H123.589C123.589 28.9336 122.927 29.2418 122.927 30.2383V42.3664C122.927 43.3998 123.642 43.7193 123.642 43.7193H118.961C118.961 43.7193 119.592 43.3908 119.592 42.3664L119.592 30.2801C119.581 29.2315 118.953 28.9336 118.953 28.9336Z" fill="#002A5C">
 </path>
 <path fill-rule="evenodd" clip-rule="evenodd" d="M108.354 42.365C108.354 44.0339 109.682 44.9499 109.682 44.9499H104.119C104.119 44.9499 103.352 44.3775 103.352 44.3744H108.406C108.406 44.3744 107.769 43.7111 107.769 42.365L107.77 38.65C107.79 38.6508 108.895 38.65 108.895 38.65C109.471 38.65 109.69 38.7601 109.9 39.1971H108.351L108.354 42.365ZM118.005 42.601C118.053 43.265 117.797 44.1318 117.018 44.5677C116.053 45.1039 114.734 45.1285 113.889 44.2794C114.777 44.5677 116.261 44.6591 117.05 43.8655C117.464 43.4074 117.773 42.7216 117.68 42.0304C117.846 42.0948 117.989 42.3294 118.005 42.601ZM116.518 32.2938C117.076 34.3949 116.274 36.4425 114.58 37.6791C115.345 38.2249 116.103 39.8552 116.802 40.7722L117.089 41.0832C116.286 41.4552 115.698 40.1512 114.622 38.6133C114.302 38.1601 113.939 37.8531 113.682 37.5989C115.338 36.4808 116.348 34.7588 116.096 32.4494C115.994 31.5365 115.185 30.2308 114.646 29.6244C115.497 29.912 116.311 31.5052 116.518 32.2938ZM110.544 34.4846H108.351V33.3319L111.459 33.325C111.459 33.0272 111.219 32.7715 110.889 32.7741H107.769L107.771 34.4846H107.081V32.1056H110.581C111.777 32.1056 112.075 32.6217 112.075 33.3332C112.075 33.614 111.932 34.4846 110.544 34.4846ZM116.917 41.7319C116.507 41.7668 116.071 41.7705 115.758 41.2864C114.606 39.5156 113.792 38.4881 112.507 37.4495C113.035 37.3194 113.519 36.9866 113.938 36.6206C115.142 35.4569 115.59 33.8312 115.277 32.154C114.926 30.6279 113.372 28.9376 111.883 28.9336H103.093C103.093 28.9336 103.724 29.2213 103.724 30.2877V42.3718C103.724 43.3908 103.082 43.7193 103.082 43.7193H107.721C107.721 43.7193 107.085 43.3998 107.085 42.3664L107.083 37.9686H109.216C110.336 37.9686 111.64 40.8928 112.403 42.4215C113.113 43.6534 114.513 44.1195 115.85 43.8264C116.346 43.7163 116.873 43.2186 117.016 42.6631C117.076 42.4001 117.143 41.9704 116.917 41.7319Z" fill="#002A5C">
 </path>
 <mask id="mask1" mask-type="alpha" maskUnits="userSpaceOnUse" x="86" y="28" width="17" height="18">
  <path fill-rule="evenodd" clip-rule="evenodd" d="M86.0234 28.6462H102.071V45.2129H86.0234V28.6462Z" fill="white">
  </path>
 </mask>
 <g mask="url(#mask1)">
  <path fill-rule="evenodd" clip-rule="evenodd" d="M102.033 40.1494C100.122 41.1708 99.0254 43.6221 97.0096 44.5731C94.8369 45.5961 91.4898 45.4104 90.0876 43.8939C91.638 44.6806 92.7995 44.6824 93.7732 44.709C95.0272 44.736 95.9399 44.4376 97.0506 43.8593C98.7045 43.0075 99.9536 40.651 101.34 39.873C101.172 39.3231 101.038 38.8788 101.017 38.3091L101.012 37.1051C101.012 36.1739 101.598 35.9523 101.598 35.9523L102.071 36.2432C102.071 36.2432 101.61 36.3562 101.61 37.2048C101.482 38.9674 102.033 40.1494 102.033 40.1494ZM91.643 33.7828C90.3917 34.594 90.0065 36.0309 90.2021 37.5029C90.329 38.4097 90.8816 39.0865 91.4621 39.7864C90.4448 39.1799 89.6538 37.9698 89.5879 36.8158C89.5144 35.531 89.7999 34.4429 90.7774 33.5265C91.7548 32.5614 93.3626 32.3078 94.6334 32.5727C95.6958 32.7931 96.3044 33.4185 96.4656 33.8448L98.7026 29.9214C98.6949 29.9173 98.7026 29.9214 98.7026 29.9214C98.7026 29.9214 98.2878 30.0389 98.0312 29.9541C97.7736 29.8691 95.7714 28.8577 94.5277 28.7103C91.4193 28.3435 88.9017 29.5727 87.2191 31.8649C85.572 34.4856 85.5893 38.7388 87.5037 41.1563C89.247 43.3514 92.213 44.3973 95.1828 43.9016C97.783 43.4671 99.7138 39.9788 100.69 39.5788C100.69 39.5788 100.524 39.1325 100.446 38.6651C100.446 38.6651 100.411 38.1324 100.411 37.562C100.41 36.9857 100.472 36.41 100.474 36.4156C100.474 35.9167 100.844 35.7927 101.107 35.6125C101.091 35.6157 96.4686 35.5967 96.4704 35.6044C96.8376 35.8073 97.0731 35.9165 97.0829 36.3969C97.0829 36.3969 97.089 38.0416 97.086 38.0573C97.0383 38.3144 96.927 38.594 96.7903 38.814C96.1664 39.8301 95.3095 40.3598 94.1889 40.4654C93.4003 40.5413 92.5086 40.3387 91.8609 39.6882C90.8711 38.7041 90.4817 37.1649 90.8209 35.851C91.1026 34.7416 91.9466 34.0059 92.9792 33.7432C94.4976 33.4177 96.1677 33.767 97.1584 35.1496L99.5233 30.7969L99.2846 30.2988L97.0534 34.2731C97.0437 34.2745 94.4961 31.9318 91.643 33.7828Z" fill="#002A5C">
  </path>
 </g>
 <path fill-rule="evenodd" clip-rule="evenodd" d="M85.7243 40.5372L84.351 44.9497H73.2882L72.5251 44.3742H83.9515L85.3278 40.1508L85.7243 40.5372ZM81.6505 40.3687L77.4752 40.3603V38.9948L79.6843 38.9894C80.3412 38.9894 81.6992 39.5334 82.1607 40.3723L82.1762 34.1627L81.5425 33.773V39.1268C81.5425 39.1268 81.3325 38.9384 80.9448 38.7112C80.6882 38.5604 80.1595 38.4424 79.822 38.4424H76.8912V40.3603H76.2136V37.7749H79.5759C79.5759 37.7749 80.5295 37.6481 80.8913 38.5738L80.8826 33.3351C80.8658 33.366 80.814 33.4816 80.736 33.5996C80.2926 34.3261 79.7933 34.2395 79.7933 34.2395H77.4721V33.3254L80.5496 33.3278C82.2184 33.3278 82.8829 33.7503 83.9871 34.7232C83.9876 34.7217 84.0701 34.8157 84.0701 34.8157L82.9301 29.7649L82.2737 29.358L83.1965 33.4306C82.571 32.9216 81.6897 32.7644 80.5409 32.7736H76.894V34.2395H76.2151V32.1015H80.6057C81.2715 32.1015 81.8953 32.1439 82.3433 32.546L81.5489 28.9336H72.2158C72.2158 28.9336 72.8485 29.2418 72.8485 30.2712L72.8431 42.3718C72.8431 43.3909 72.2031 43.7194 72.2031 43.7194H83.426L84.7519 39.5941C83.7812 40.3524 82.8143 40.3687 81.6505 40.3687Z" fill="#002A5C">
 </path>
 <path fill-rule="evenodd" clip-rule="evenodd" d="M71.3351 40.2093L69.9692 44.3755H59.4808L60.2456 44.9511H70.33L71.7349 40.5714L71.3351 40.2093ZM70.7544 39.6377L69.4323 43.7193H59.1562C59.1562 43.7193 59.796 43.3909 59.796 42.3718V30.2877C59.796 29.2487 59.1647 28.9336 59.1647 28.9336H63.8051C63.8051 28.9336 63.1578 29.2418 63.1578 30.2383V40.3603H63.8375V30.6294C63.8375 29.6953 64.2445 29.5924 64.2445 29.5924L64.76 29.9034C64.76 29.9034 64.4279 29.9342 64.4279 30.8115L64.4269 40.3603H68.6242C69.919 40.3603 70.6194 39.7434 70.7359 39.6309C70.7404 39.634 70.749 39.6348 70.7544 39.6377Z" fill="#002A5C">
 </path>
 <path fill-rule="evenodd" clip-rule="evenodd" d="M58.1667 40.2093L56.8007 44.3755H46.3099L47.0774 44.9511H57.1613L58.5653 40.5714L58.1667 40.2093ZM57.5832 39.6377L56.2641 43.7193H45.9883C45.9883 43.7193 46.6248 43.3909 46.6248 42.3718V30.2877C46.6248 29.2487 45.9981 28.9336 45.9981 28.9336H50.6329C50.6329 28.9336 49.9897 29.2418 49.9897 30.2383L49.992 40.3603H50.6668V30.6294C50.6668 29.6953 51.072 29.5924 51.072 29.5924L51.5885 29.9034C51.5885 29.9034 51.2559 29.9342 51.2559 30.8115L51.2547 40.3603H55.4517C56.7517 40.3603 57.4482 39.7434 57.5679 39.6309C57.5723 39.634 57.5792 39.6348 57.5832 39.6377Z" fill="#002A5C">
 </path>
 <path fill-rule="evenodd" clip-rule="evenodd" d="M45.2369 40.5372L43.866 44.9497H32.8037L32.0403 44.3742H43.4662L44.8427 40.1508L45.2369 40.5372ZM41.1654 40.3687L36.9869 40.3603V38.9948L39.1972 38.9894C39.8562 38.9894 41.2115 39.5334 41.672 40.3723L41.6917 34.1627L41.0581 33.773V39.1268C41.0581 39.1268 40.847 38.9384 40.4602 38.7112C40.2008 38.5604 39.6752 38.4424 39.336 38.4424H36.4061V40.3603H35.7288V37.7749H39.0915C39.0915 37.7749 40.0575 37.7191 40.4062 38.6825L40.3962 33.3351C40.3803 33.366 40.3292 33.4816 40.2518 33.5996C39.8079 34.3261 39.3079 34.2395 39.3079 34.2395H36.9848V33.3254L40.0628 33.3278C41.7335 33.3278 42.4009 33.7503 43.5002 34.7232C43.5028 34.7217 43.5846 34.8157 43.5846 34.8157L42.4547 29.8012L41.7978 29.3926L42.7073 33.4306C42.0834 32.9216 41.2043 32.7644 40.0568 32.7736H36.4084V34.2395H35.7308V32.1015H40.1173C40.7858 32.1015 41.4102 32.1439 41.859 32.546L41.0646 28.9336H31.7294C31.7294 28.9336 32.3596 29.2418 32.3596 30.2712L32.3558 42.3718C32.3558 43.3909 31.7188 43.7194 31.7188 43.7194H42.942L44.2677 39.5941C43.2991 40.3524 42.3251 40.3687 41.1654 40.3687Z" fill="#002A5C">
 </path>
 <path fill-rule="evenodd" clip-rule="evenodd" d="M25.2594 34.5293H23.1048V33.3319L26.1751 33.3346C26.1751 33.0352 25.9318 32.7716 25.6043 32.7741H22.5278V34.5293H21.8477V32.1056H25.298C26.4917 32.1056 26.7912 32.6404 26.7912 33.3537C26.7912 33.7015 26.6476 34.5293 25.2594 34.5293ZM23.1048 42.3734C23.1048 44.0465 24.439 44.9499 24.439 44.9499H18.8787C18.8787 44.9499 18.1117 44.3775 18.1117 44.3743H23.1634C23.1634 44.3743 22.5278 43.7237 22.5278 42.3734V42.3767V38.65C22.5278 38.65 24.9194 38.6545 24.9246 38.653C26.1084 38.653 26.9398 38.573 27.9743 38.0785C29.3026 37.4462 30.6974 35.8423 30.6596 33.5789C30.6385 32.113 30.1858 30.8879 29.1897 29.8424C29.1932 29.8412 29.1935 29.8521 29.1974 29.85C30.6799 30.766 31.2234 32.4579 31.1535 34.2352C31.0788 36.0419 30.1196 37.5563 28.4366 38.4792C27.5054 38.9855 26.3092 39.1944 24.6923 39.1944C24.6817 39.1944 23.1048 39.1922 23.1048 39.1922V42.3734ZM29.8118 32.1091C29.4083 30.759 28.6126 28.9336 25.7444 28.9336H17.8284C17.8284 28.9336 18.4737 29.2315 18.4737 30.2802V42.3718C18.4721 43.3799 17.8193 43.7194 17.8254 43.7194C17.8254 43.7227 17.8254 43.7172 17.8242 43.7194H22.4745C22.4745 43.7194 21.8464 43.3909 21.8464 42.3718L21.8461 37.9709C21.8519 37.9718 25.345 37.965 25.353 37.9709C26.6862 37.9709 27.9497 37.5534 28.9263 36.5395C29.9009 35.5316 30.2971 33.7375 29.8118 32.1091Z" fill="#002A5C">
 </path>
 <path fill-rule="evenodd" clip-rule="evenodd" d="M12.9867 40.177C12.0069 40.177 11.2109 40.9789 11.2109 41.9745C11.2109 42.9665 12.0069 43.7714 12.9867 43.7714C13.9689 43.7714 14.7624 42.9665 14.7624 41.9745C14.7624 40.9789 13.9689 40.177 12.9867 40.177ZM15.4375 43.0135C15.3892 43.4022 15.2639 43.7732 14.8719 44.1298C14.5872 44.3942 14.1314 44.4972 13.7585 44.4972C13.4392 44.4972 12.8246 44.3802 12.6482 44.1462C12.6489 44.1448 12.6496 44.1426 12.6511 44.1406C12.71 44.1676 13.7806 44.5669 14.601 43.7396C15.3102 43.0289 15.2105 41.9511 15.2169 41.9548C15.2169 41.9548 15.5036 42.4643 15.4375 43.0135Z" fill="#002A5C">
 </path>
 <path fill-rule="evenodd" clip-rule="evenodd" d="M4.85508 32.6365C5.52962 32.52 8.30534 33.766 9.42915 34.4426C9.32723 34.3306 8.96201 33.9261 8.82551 33.7897C8.51309 33.4861 8.17196 33.1893 7.79544 32.9758C7.11283 32.5852 6.30088 32.2992 5.55809 32.129C5.18676 32.046 4.63443 31.957 4.28672 32.1379C3.81682 32.3902 3.79814 32.6897 3.82708 32.9758C3.87147 33.2553 4.13236 33.4891 4.41561 33.633C4.41677 33.6267 4.31578 33.5474 4.26978 33.2992C4.20049 32.9434 4.44409 32.7097 4.85508 32.6365ZM10.8295 35.8477C10.6109 35.6951 8.96333 34.7381 8.13731 34.3002C7.22136 33.7874 5.40735 33.0594 5.01146 33.1209C4.61084 33.1856 4.48011 33.5576 4.79403 33.8194C6.87159 34.892 9.8214 35.7852 10.046 38.6948C10.3209 40.6072 9.56131 42.3907 8.02836 43.3802C6.95056 44.0718 5.6966 44.0278 4.48933 43.7815C3.65409 43.6074 1.85563 42.6092 1.38977 43.7947L1.37293 43.8482C1.37178 43.8489 1.36982 43.8508 1.36671 43.8508C1.31183 43.6763 0.0351621 38.4877 0 38.3328C0.00426556 38.3315 0.00518784 38.3301 0.00783941 38.3284C0.216045 38.4821 4.05666 41.3894 6.03312 40.331C6.38601 40.0997 6.54406 39.5929 6.47708 39.1641C6.44077 38.5509 5.88728 38.1142 5.36458 37.8447C3.51793 36.897 0.799389 36.2515 0.354157 33.6673C-0.00703242 31.9911 0.680991 30.3819 2.01519 29.4562C2.39044 29.1926 2.86888 28.9715 3.31549 28.8593C4.0102 28.6814 4.72958 28.828 5.40608 29.0234C5.74467 29.124 6.0775 29.2406 6.41079 29.3397C6.7427 29.4395 7.09974 29.6503 7.45989 29.6019C7.79318 29.5567 8.06214 29.3119 8.33491 29.1363L9.50171 34.4631C9.80099 34.6622 10.153 34.8509 10.153 34.8509L9.02846 29.5692C9.034 29.5654 9.59048 29.9266 9.59048 29.9266L10.8295 35.8477ZM10.5491 38.6532C10.6719 39.0375 10.6321 39.8752 10.6133 40.233C10.5803 40.844 10.3853 41.6343 10.049 42.2284C9.00188 44.0746 7.09241 44.9513 4.65562 44.519C3.84009 44.3756 2.55224 43.866 2.29953 43.866C1.93661 43.866 1.7925 44.1952 1.7925 44.1952L2.11161 44.4346C2.11161 44.4346 2.24615 44.2225 2.52664 44.298C3.31888 44.5207 4.14444 44.8644 4.96135 44.9976C6.3057 45.2255 7.49406 45.0661 8.6687 44.3508C9.68287 43.7331 10.611 42.7489 10.844 41.5405C11.1769 39.8262 10.5491 38.6532 10.5491 38.6532ZM6.17002 39.7366L6.16253 39.7574C5.10282 38.3866 3.0489 38.6439 2.15936 37.0314C2.16339 37.0287 2.16547 37.0259 2.16812 37.024C3.48399 37.9943 5.58518 37.8712 6.17002 39.7366Z" fill="#002A5C">
 </path>
 <mask id="mask2" mask-type="alpha" maskUnits="userSpaceOnUse" x="65" y="0" width="28" height="27">
  <path fill-rule="evenodd" clip-rule="evenodd" d="M65.3242 0H92.7633V26.1718H65.3242V0Z" fill="white">
  </path>
 </mask>
 <g mask="url(#mask2)">
  <path fill-rule="evenodd" clip-rule="evenodd" d="M79.0431 0L82.2801 9.99453H92.7633L84.2859 16.1749L87.5224 26.1718L79.0431 19.9935L70.5632 26.1718L73.8022 16.1749L65.3242 9.99453H75.8056L79.0431 0Z" fill="#E10025">
  </path>
 </g>
 <path fill-rule="evenodd" clip-rule="evenodd" d="M79.0453 2.70886L81.6771 10.8331H90.197L83.3054 15.8568L85.9383 23.9805L79.0453 18.9584L72.1548 23.9805L74.7859 15.8568L67.8945 10.8331H76.4147L79.0453 2.70886Z" fill="#FEFEFE">
 </path>
 <path fill-rule="evenodd" clip-rule="evenodd" d="M79.0466 4.9884L81.1678 11.5395H88.0307L82.4805 15.5837L84.6002 22.1339L79.0466 18.0872L73.4937 22.1339L75.6143 15.5837L70.0625 11.5395H76.9268L79.0466 4.9884Z" fill="#E10025">
 </path>
</svg>